<mxfile host="app.diagrams.net" modified="2024-03-10T22:45:32.276Z" agent="Mozilla/5.0 (X11; Linux x86_64; rv:109.0) Gecko/20100101 Firefox/115.0" etag="VfTSOA6HnxUjpCZ9xBAK" version="23.1.8" type="device">
  <diagram name="Page-1" id="uu7o2QD7KZpTiCy1ZFw0">
    <mxGraphModel dx="1687" dy="871" grid="1" gridSize="10" guides="1" tooltips="1" connect="1" arrows="1" fold="1" page="1" pageScale="1" pageWidth="850" pageHeight="1100" math="0" shadow="0">
      <root>
        <mxCell id="0" />
        <mxCell id="1" parent="0" />
        <mxCell id="J5dlkVCJDZYCb8qdDboG-1" value="Turma" style="rounded=0;whiteSpace=wrap;html=1;" parent="1" vertex="1">
          <mxGeometry x="80" y="60" width="70" height="20" as="geometry" />
        </mxCell>
        <mxCell id="J5dlkVCJDZYCb8qdDboG-2" value="id" style="rounded=0;whiteSpace=wrap;html=1;fontStyle=4" parent="1" vertex="1">
          <mxGeometry x="80" y="80" width="50" height="40" as="geometry" />
        </mxCell>
        <mxCell id="J5dlkVCJDZYCb8qdDboG-3" value="designacao" style="rounded=0;whiteSpace=wrap;html=1;" parent="1" vertex="1">
          <mxGeometry x="130" y="80" width="80" height="40" as="geometry" />
        </mxCell>
        <mxCell id="J5dlkVCJDZYCb8qdDboG-4" value="maxAlunos" style="rounded=0;whiteSpace=wrap;html=1;" parent="1" vertex="1">
          <mxGeometry x="210" y="80" width="70" height="40" as="geometry" />
        </mxCell>
        <mxCell id="J5dlkVCJDZYCb8qdDboG-6" value="Professor" style="rounded=0;whiteSpace=wrap;html=1;" parent="1" vertex="1">
          <mxGeometry x="80" y="180" width="70" height="20" as="geometry" />
        </mxCell>
        <mxCell id="J5dlkVCJDZYCb8qdDboG-11" value="professor-numFuncionario" style="rounded=0;whiteSpace=wrap;html=1;" parent="1" vertex="1">
          <mxGeometry x="280" y="80" width="100" height="40" as="geometry" />
        </mxCell>
        <mxCell id="J5dlkVCJDZYCb8qdDboG-13" value="Classe" style="rounded=0;whiteSpace=wrap;html=1;" parent="1" vertex="1">
          <mxGeometry x="520" y="60" width="70" height="20" as="geometry" />
        </mxCell>
        <mxCell id="J5dlkVCJDZYCb8qdDboG-14" value="id" style="rounded=0;whiteSpace=wrap;html=1;fontStyle=4" parent="1" vertex="1">
          <mxGeometry x="520" y="80" width="70" height="40" as="geometry" />
        </mxCell>
        <mxCell id="J5dlkVCJDZYCb8qdDboG-19" style="edgeStyle=orthogonalEdgeStyle;rounded=0;orthogonalLoop=1;jettySize=auto;html=1;entryX=0;entryY=0.5;entryDx=0;entryDy=0;" parent="1" source="J5dlkVCJDZYCb8qdDboG-18" target="J5dlkVCJDZYCb8qdDboG-14" edge="1">
          <mxGeometry relative="1" as="geometry" />
        </mxCell>
        <mxCell id="J5dlkVCJDZYCb8qdDboG-18" value="Classe-id" style="rounded=0;whiteSpace=wrap;html=1;" parent="1" vertex="1">
          <mxGeometry x="380" y="80" width="80" height="40" as="geometry" />
        </mxCell>
        <mxCell id="J5dlkVCJDZYCb8qdDboG-20" value="Pessoa" style="rounded=0;whiteSpace=wrap;html=1;" parent="1" vertex="1">
          <mxGeometry x="520" y="690" width="70" height="20" as="geometry" />
        </mxCell>
        <mxCell id="J5dlkVCJDZYCb8qdDboG-21" value="cc" style="rounded=0;whiteSpace=wrap;html=1;fontStyle=4" parent="1" vertex="1">
          <mxGeometry x="520" y="710" width="70" height="40" as="geometry" />
        </mxCell>
        <mxCell id="J5dlkVCJDZYCb8qdDboG-22" value="nome" style="rounded=0;whiteSpace=wrap;html=1;" parent="1" vertex="1">
          <mxGeometry x="590" y="710" width="70" height="40" as="geometry" />
        </mxCell>
        <mxCell id="J5dlkVCJDZYCb8qdDboG-23" value="morada" style="rounded=0;whiteSpace=wrap;html=1;" parent="1" vertex="1">
          <mxGeometry x="660" y="710" width="70" height="40" as="geometry" />
        </mxCell>
        <mxCell id="J5dlkVCJDZYCb8qdDboG-24" value="dataNascimento" style="rounded=0;whiteSpace=wrap;html=1;" parent="1" vertex="1">
          <mxGeometry x="730" y="710" width="110" height="40" as="geometry" />
        </mxCell>
        <mxCell id="J5dlkVCJDZYCb8qdDboG-25" value="EncarregadoEducacao" style="rounded=0;whiteSpace=wrap;html=1;" parent="1" vertex="1">
          <mxGeometry x="280" y="540" width="140" height="20" as="geometry" />
        </mxCell>
        <mxCell id="J5dlkVCJDZYCb8qdDboG-30" value="Relationship" style="rounded=0;whiteSpace=wrap;html=1;" parent="1" vertex="1">
          <mxGeometry x="240" y="420" width="80" height="20" as="geometry" />
        </mxCell>
        <mxCell id="J5dlkVCJDZYCb8qdDboG-35" value="Atividade" style="rounded=0;whiteSpace=wrap;html=1;" parent="1" vertex="1">
          <mxGeometry x="520" y="300" width="70" height="20" as="geometry" />
        </mxCell>
        <mxCell id="J5dlkVCJDZYCb8qdDboG-36" value="id" style="rounded=0;whiteSpace=wrap;html=1;fontStyle=4" parent="1" vertex="1">
          <mxGeometry x="520" y="320" width="70" height="40" as="geometry" />
        </mxCell>
        <mxCell id="J5dlkVCJDZYCb8qdDboG-37" value="designacao" style="rounded=0;whiteSpace=wrap;html=1;" parent="1" vertex="1">
          <mxGeometry x="590" y="320" width="85" height="40" as="geometry" />
        </mxCell>
        <mxCell id="J5dlkVCJDZYCb8qdDboG-38" value="pagamento_Id" style="rounded=0;whiteSpace=wrap;html=1;" parent="1" vertex="1">
          <mxGeometry x="675" y="320" width="85" height="40" as="geometry" />
        </mxCell>
        <mxCell id="J5dlkVCJDZYCb8qdDboG-40" value="Turma-Atividade" style="rounded=0;whiteSpace=wrap;html=1;" parent="1" vertex="1">
          <mxGeometry x="520" y="180" width="100" height="20" as="geometry" />
        </mxCell>
        <mxCell id="0XxwVPzC8koL60T8kLyI-56" style="edgeStyle=orthogonalEdgeStyle;rounded=0;orthogonalLoop=1;jettySize=auto;html=1;exitX=0.5;exitY=1;exitDx=0;exitDy=0;entryX=0.75;entryY=1;entryDx=0;entryDy=0;" edge="1" parent="1" source="J5dlkVCJDZYCb8qdDboG-41" target="J5dlkVCJDZYCb8qdDboG-2">
          <mxGeometry relative="1" as="geometry">
            <Array as="points">
              <mxPoint x="555" y="260" />
              <mxPoint x="480" y="260" />
              <mxPoint x="480" y="180" />
              <mxPoint x="370" y="180" />
              <mxPoint x="370" y="160" />
              <mxPoint x="118" y="160" />
            </Array>
          </mxGeometry>
        </mxCell>
        <mxCell id="J5dlkVCJDZYCb8qdDboG-41" value="&lt;u&gt;turma_Id&lt;/u&gt;" style="rounded=0;whiteSpace=wrap;html=1;fontStyle=4" parent="1" vertex="1">
          <mxGeometry x="520" y="200" width="70" height="40" as="geometry" />
        </mxCell>
        <mxCell id="0XxwVPzC8koL60T8kLyI-58" style="edgeStyle=orthogonalEdgeStyle;rounded=0;orthogonalLoop=1;jettySize=auto;html=1;exitX=0.5;exitY=1;exitDx=0;exitDy=0;entryX=0.75;entryY=1;entryDx=0;entryDy=0;" edge="1" parent="1" source="J5dlkVCJDZYCb8qdDboG-42" target="J5dlkVCJDZYCb8qdDboG-36">
          <mxGeometry relative="1" as="geometry">
            <Array as="points">
              <mxPoint x="625" y="260" />
              <mxPoint x="780" y="260" />
              <mxPoint x="780" y="380" />
              <mxPoint x="573" y="380" />
            </Array>
          </mxGeometry>
        </mxCell>
        <mxCell id="J5dlkVCJDZYCb8qdDboG-42" value="&lt;u&gt;atividadeId&lt;/u&gt;" style="rounded=0;whiteSpace=wrap;html=1;" parent="1" vertex="1">
          <mxGeometry x="590" y="200" width="70" height="40" as="geometry" />
        </mxCell>
        <mxCell id="J5dlkVCJDZYCb8qdDboG-45" value="Aluno" style="rounded=0;whiteSpace=wrap;html=1;" parent="1" vertex="1">
          <mxGeometry x="520" y="540" width="70" height="20" as="geometry" />
        </mxCell>
        <mxCell id="J5dlkVCJDZYCb8qdDboG-50" value="Aluno-Atividade" style="rounded=0;whiteSpace=wrap;html=1;" parent="1" vertex="1">
          <mxGeometry x="520" y="420" width="100" height="20" as="geometry" />
        </mxCell>
        <mxCell id="J5dlkVCJDZYCb8qdDboG-55" value="PessoasAutorizadas" style="rounded=0;whiteSpace=wrap;html=1;" parent="1" vertex="1">
          <mxGeometry x="80" y="660" width="125" height="20" as="geometry" />
        </mxCell>
        <mxCell id="0XxwVPzC8koL60T8kLyI-12" style="edgeStyle=orthogonalEdgeStyle;rounded=0;orthogonalLoop=1;jettySize=auto;html=1;exitX=1;exitY=0.5;exitDx=0;exitDy=0;entryX=0.5;entryY=1;entryDx=0;entryDy=0;" edge="1" parent="1" source="0XxwVPzC8koL60T8kLyI-1" target="J5dlkVCJDZYCb8qdDboG-2">
          <mxGeometry relative="1" as="geometry">
            <Array as="points">
              <mxPoint x="800" y="580" />
              <mxPoint x="800" y="150" />
              <mxPoint x="105" y="150" />
            </Array>
          </mxGeometry>
        </mxCell>
        <mxCell id="0XxwVPzC8koL60T8kLyI-1" value="" style="shape=table;startSize=0;container=1;collapsible=0;childLayout=tableLayout;" vertex="1" parent="1">
          <mxGeometry x="520" y="560" width="140" height="40" as="geometry" />
        </mxCell>
        <mxCell id="0XxwVPzC8koL60T8kLyI-2" value="" style="shape=tableRow;horizontal=0;startSize=0;swimlaneHead=0;swimlaneBody=0;strokeColor=inherit;top=0;left=0;bottom=0;right=0;collapsible=0;dropTarget=0;fillColor=none;points=[[0,0.5],[1,0.5]];portConstraint=eastwest;" vertex="1" parent="0XxwVPzC8koL60T8kLyI-1">
          <mxGeometry width="140" height="40" as="geometry" />
        </mxCell>
        <mxCell id="0XxwVPzC8koL60T8kLyI-3" value="&lt;u&gt;cc_Pessoa&lt;/u&gt;" style="shape=partialRectangle;html=1;whiteSpace=wrap;connectable=0;strokeColor=inherit;overflow=hidden;fillColor=none;top=0;left=0;bottom=0;right=0;pointerEvents=1;" vertex="1" parent="0XxwVPzC8koL60T8kLyI-2">
          <mxGeometry width="70" height="40" as="geometry">
            <mxRectangle width="70" height="40" as="alternateBounds" />
          </mxGeometry>
        </mxCell>
        <mxCell id="0XxwVPzC8koL60T8kLyI-4" value="turma_Id" style="shape=partialRectangle;html=1;whiteSpace=wrap;connectable=0;strokeColor=inherit;overflow=hidden;fillColor=none;top=0;left=0;bottom=0;right=0;pointerEvents=1;" vertex="1" parent="0XxwVPzC8koL60T8kLyI-2">
          <mxGeometry x="70" width="70" height="40" as="geometry">
            <mxRectangle width="70" height="40" as="alternateBounds" />
          </mxGeometry>
        </mxCell>
        <mxCell id="0XxwVPzC8koL60T8kLyI-6" value="" style="shape=table;startSize=0;container=1;collapsible=0;childLayout=tableLayout;" vertex="1" parent="1">
          <mxGeometry x="520" y="440" width="170" height="40" as="geometry" />
        </mxCell>
        <mxCell id="0XxwVPzC8koL60T8kLyI-7" value="" style="shape=tableRow;horizontal=0;startSize=0;swimlaneHead=0;swimlaneBody=0;strokeColor=inherit;top=0;left=0;bottom=0;right=0;collapsible=0;dropTarget=0;fillColor=none;points=[[0,0.5],[1,0.5]];portConstraint=eastwest;" vertex="1" parent="0XxwVPzC8koL60T8kLyI-6">
          <mxGeometry width="170" height="40" as="geometry" />
        </mxCell>
        <mxCell id="0XxwVPzC8koL60T8kLyI-8" value="&lt;u&gt;Atividade_d&lt;/u&gt;" style="shape=partialRectangle;html=1;whiteSpace=wrap;connectable=0;strokeColor=inherit;overflow=hidden;fillColor=none;top=0;left=0;bottom=0;right=0;pointerEvents=1;" vertex="1" parent="0XxwVPzC8koL60T8kLyI-7">
          <mxGeometry width="85" height="40" as="geometry">
            <mxRectangle width="85" height="40" as="alternateBounds" />
          </mxGeometry>
        </mxCell>
        <mxCell id="0XxwVPzC8koL60T8kLyI-9" value="&lt;u&gt;Aluno_id&lt;/u&gt;" style="shape=partialRectangle;html=1;whiteSpace=wrap;connectable=0;strokeColor=inherit;overflow=hidden;fillColor=none;top=0;left=0;bottom=0;right=0;pointerEvents=1;" vertex="1" parent="0XxwVPzC8koL60T8kLyI-7">
          <mxGeometry x="85" width="85" height="40" as="geometry">
            <mxRectangle width="85" height="40" as="alternateBounds" />
          </mxGeometry>
        </mxCell>
        <mxCell id="0XxwVPzC8koL60T8kLyI-10" style="edgeStyle=orthogonalEdgeStyle;rounded=0;orthogonalLoop=1;jettySize=auto;html=1;exitX=0.776;exitY=1;exitDx=0;exitDy=0;entryX=0.393;entryY=1;entryDx=0;entryDy=0;entryPerimeter=0;exitPerimeter=0;" edge="1" parent="1" source="0XxwVPzC8koL60T8kLyI-7" target="0XxwVPzC8koL60T8kLyI-2">
          <mxGeometry relative="1" as="geometry" />
        </mxCell>
        <mxCell id="0XxwVPzC8koL60T8kLyI-11" style="edgeStyle=orthogonalEdgeStyle;rounded=0;orthogonalLoop=1;jettySize=auto;html=1;exitX=0.259;exitY=0.975;exitDx=0;exitDy=0;exitPerimeter=0;" edge="1" parent="1" source="0XxwVPzC8koL60T8kLyI-7" target="J5dlkVCJDZYCb8qdDboG-36">
          <mxGeometry relative="1" as="geometry" />
        </mxCell>
        <mxCell id="0XxwVPzC8koL60T8kLyI-13" value="" style="shape=table;startSize=0;container=1;collapsible=0;childLayout=tableLayout;" vertex="1" parent="1">
          <mxGeometry x="280" y="560" width="180" height="40" as="geometry" />
        </mxCell>
        <mxCell id="0XxwVPzC8koL60T8kLyI-14" value="" style="shape=tableRow;horizontal=0;startSize=0;swimlaneHead=0;swimlaneBody=0;strokeColor=inherit;top=0;left=0;bottom=0;right=0;collapsible=0;dropTarget=0;fillColor=none;points=[[0,0.5],[1,0.5]];portConstraint=eastwest;" vertex="1" parent="0XxwVPzC8koL60T8kLyI-13">
          <mxGeometry width="180" height="40" as="geometry" />
        </mxCell>
        <mxCell id="0XxwVPzC8koL60T8kLyI-15" value="&lt;u&gt;cc_Pessoa&lt;/u&gt;" style="shape=partialRectangle;html=1;whiteSpace=wrap;connectable=0;strokeColor=inherit;overflow=hidden;fillColor=none;top=0;left=0;bottom=0;right=0;pointerEvents=1;" vertex="1" parent="0XxwVPzC8koL60T8kLyI-14">
          <mxGeometry width="80" height="40" as="geometry">
            <mxRectangle width="80" height="40" as="alternateBounds" />
          </mxGeometry>
        </mxCell>
        <mxCell id="0XxwVPzC8koL60T8kLyI-16" value="telefone" style="shape=partialRectangle;html=1;whiteSpace=wrap;connectable=0;strokeColor=inherit;overflow=hidden;fillColor=none;top=0;left=0;bottom=0;right=0;pointerEvents=1;" vertex="1" parent="0XxwVPzC8koL60T8kLyI-14">
          <mxGeometry x="80" width="60" height="40" as="geometry">
            <mxRectangle width="60" height="40" as="alternateBounds" />
          </mxGeometry>
        </mxCell>
        <mxCell id="0XxwVPzC8koL60T8kLyI-17" value="&lt;div&gt;email&lt;/div&gt;" style="shape=partialRectangle;html=1;whiteSpace=wrap;connectable=0;strokeColor=inherit;overflow=hidden;fillColor=none;top=0;left=0;bottom=0;right=0;pointerEvents=1;" vertex="1" parent="0XxwVPzC8koL60T8kLyI-14">
          <mxGeometry x="140" width="40" height="40" as="geometry">
            <mxRectangle width="40" height="40" as="alternateBounds" />
          </mxGeometry>
        </mxCell>
        <mxCell id="0XxwVPzC8koL60T8kLyI-20" value="" style="shape=table;startSize=0;container=1;collapsible=0;childLayout=tableLayout;" vertex="1" parent="1">
          <mxGeometry x="80" y="200" width="360" height="40" as="geometry" />
        </mxCell>
        <mxCell id="0XxwVPzC8koL60T8kLyI-21" value="" style="shape=tableRow;horizontal=0;startSize=0;swimlaneHead=0;swimlaneBody=0;strokeColor=inherit;top=0;left=0;bottom=0;right=0;collapsible=0;dropTarget=0;fillColor=none;points=[[0,0.5],[1,0.5]];portConstraint=eastwest;" vertex="1" parent="0XxwVPzC8koL60T8kLyI-20">
          <mxGeometry width="360" height="40" as="geometry" />
        </mxCell>
        <mxCell id="0XxwVPzC8koL60T8kLyI-22" value="&lt;u&gt;numFuncionario&lt;/u&gt;" style="shape=partialRectangle;html=1;whiteSpace=wrap;connectable=0;strokeColor=inherit;overflow=hidden;fillColor=none;top=0;left=0;bottom=0;right=0;pointerEvents=1;" vertex="1" parent="0XxwVPzC8koL60T8kLyI-21">
          <mxGeometry width="100" height="40" as="geometry">
            <mxRectangle width="100" height="40" as="alternateBounds" />
          </mxGeometry>
        </mxCell>
        <mxCell id="0XxwVPzC8koL60T8kLyI-23" value="cc_Pessoa" style="shape=partialRectangle;html=1;whiteSpace=wrap;connectable=0;strokeColor=inherit;overflow=hidden;fillColor=none;top=0;left=0;bottom=0;right=0;pointerEvents=1;" vertex="1" parent="0XxwVPzC8koL60T8kLyI-21">
          <mxGeometry x="100" width="80" height="40" as="geometry">
            <mxRectangle width="80" height="40" as="alternateBounds" />
          </mxGeometry>
        </mxCell>
        <mxCell id="0XxwVPzC8koL60T8kLyI-24" value="telefone" style="shape=partialRectangle;html=1;whiteSpace=wrap;connectable=0;strokeColor=inherit;overflow=hidden;fillColor=none;top=0;left=0;bottom=0;right=0;pointerEvents=1;" vertex="1" parent="0XxwVPzC8koL60T8kLyI-21">
          <mxGeometry x="180" width="91" height="40" as="geometry">
            <mxRectangle width="91" height="40" as="alternateBounds" />
          </mxGeometry>
        </mxCell>
        <mxCell id="0XxwVPzC8koL60T8kLyI-25" value="email" style="shape=partialRectangle;html=1;whiteSpace=wrap;connectable=0;strokeColor=inherit;overflow=hidden;fillColor=none;top=0;left=0;bottom=0;right=0;pointerEvents=1;" vertex="1" parent="0XxwVPzC8koL60T8kLyI-21">
          <mxGeometry x="271" width="89" height="40" as="geometry">
            <mxRectangle width="89" height="40" as="alternateBounds" />
          </mxGeometry>
        </mxCell>
        <mxCell id="0XxwVPzC8koL60T8kLyI-26" style="edgeStyle=orthogonalEdgeStyle;rounded=0;orthogonalLoop=1;jettySize=auto;html=1;exitX=0.5;exitY=1;exitDx=0;exitDy=0;entryX=0.163;entryY=1.075;entryDx=0;entryDy=0;entryPerimeter=0;" edge="1" parent="1" source="J5dlkVCJDZYCb8qdDboG-11" target="0XxwVPzC8koL60T8kLyI-20">
          <mxGeometry relative="1" as="geometry">
            <Array as="points">
              <mxPoint x="330" y="170" />
              <mxPoint x="50" y="170" />
              <mxPoint x="50" y="260" />
              <mxPoint x="139" y="260" />
            </Array>
          </mxGeometry>
        </mxCell>
        <mxCell id="0XxwVPzC8koL60T8kLyI-28" style="edgeStyle=orthogonalEdgeStyle;rounded=0;orthogonalLoop=1;jettySize=auto;html=1;exitX=0.222;exitY=1.025;exitDx=0;exitDy=0;entryX=0.25;entryY=1;entryDx=0;entryDy=0;exitPerimeter=0;" edge="1" parent="1" source="0XxwVPzC8koL60T8kLyI-14" target="J5dlkVCJDZYCb8qdDboG-21">
          <mxGeometry relative="1" as="geometry">
            <Array as="points">
              <mxPoint x="320" y="620" />
              <mxPoint x="380" y="620" />
              <mxPoint x="380" y="770" />
              <mxPoint x="538" y="770" />
            </Array>
          </mxGeometry>
        </mxCell>
        <mxCell id="0XxwVPzC8koL60T8kLyI-30" style="edgeStyle=orthogonalEdgeStyle;rounded=0;orthogonalLoop=1;jettySize=auto;html=1;exitX=0.136;exitY=1.025;exitDx=0;exitDy=0;entryX=0;entryY=0.5;entryDx=0;entryDy=0;exitPerimeter=0;" edge="1" parent="1" source="0XxwVPzC8koL60T8kLyI-2" target="J5dlkVCJDZYCb8qdDboG-21">
          <mxGeometry relative="1" as="geometry" />
        </mxCell>
        <mxCell id="0XxwVPzC8koL60T8kLyI-31" style="edgeStyle=orthogonalEdgeStyle;rounded=0;orthogonalLoop=1;jettySize=auto;html=1;exitX=0.394;exitY=1.025;exitDx=0;exitDy=0;entryX=0.75;entryY=1;entryDx=0;entryDy=0;exitPerimeter=0;" edge="1" parent="1" source="0XxwVPzC8koL60T8kLyI-21" target="J5dlkVCJDZYCb8qdDboG-21">
          <mxGeometry relative="1" as="geometry">
            <Array as="points">
              <mxPoint x="222" y="280" />
              <mxPoint x="20" y="280" />
              <mxPoint x="20" y="810" />
              <mxPoint x="573" y="810" />
            </Array>
          </mxGeometry>
        </mxCell>
        <mxCell id="0XxwVPzC8koL60T8kLyI-55" style="edgeStyle=orthogonalEdgeStyle;rounded=0;orthogonalLoop=1;jettySize=auto;html=1;exitX=0.75;exitY=1;exitDx=0;exitDy=0;entryX=0.25;entryY=1;entryDx=0;entryDy=0;" edge="1" parent="1" source="0XxwVPzC8koL60T8kLyI-34" target="0XxwVPzC8koL60T8kLyI-1">
          <mxGeometry relative="1" as="geometry">
            <Array as="points">
              <mxPoint x="290" y="740" />
              <mxPoint x="460" y="740" />
              <mxPoint x="460" y="670" />
              <mxPoint x="555" y="670" />
            </Array>
          </mxGeometry>
        </mxCell>
        <mxCell id="0XxwVPzC8koL60T8kLyI-34" value="" style="shape=table;startSize=0;container=1;collapsible=0;childLayout=tableLayout;" vertex="1" parent="1">
          <mxGeometry x="80" y="680" width="280" height="40" as="geometry" />
        </mxCell>
        <mxCell id="0XxwVPzC8koL60T8kLyI-35" value="" style="shape=tableRow;horizontal=0;startSize=0;swimlaneHead=0;swimlaneBody=0;strokeColor=inherit;top=0;left=0;bottom=0;right=0;collapsible=0;dropTarget=0;fillColor=none;points=[[0,0.5],[1,0.5]];portConstraint=eastwest;" vertex="1" parent="0XxwVPzC8koL60T8kLyI-34">
          <mxGeometry width="280" height="40" as="geometry" />
        </mxCell>
        <mxCell id="0XxwVPzC8koL60T8kLyI-36" value="&lt;u&gt;cc_Pessoa&lt;/u&gt;" style="shape=partialRectangle;html=1;whiteSpace=wrap;connectable=0;strokeColor=inherit;overflow=hidden;fillColor=none;top=0;left=0;bottom=0;right=0;pointerEvents=1;" vertex="1" parent="0XxwVPzC8koL60T8kLyI-35">
          <mxGeometry width="70" height="40" as="geometry">
            <mxRectangle width="70" height="40" as="alternateBounds" />
          </mxGeometry>
        </mxCell>
        <mxCell id="0XxwVPzC8koL60T8kLyI-37" value="telefone" style="shape=partialRectangle;html=1;whiteSpace=wrap;connectable=0;strokeColor=inherit;overflow=hidden;fillColor=none;top=0;left=0;bottom=0;right=0;pointerEvents=1;" vertex="1" parent="0XxwVPzC8koL60T8kLyI-35">
          <mxGeometry x="70" width="60" height="40" as="geometry">
            <mxRectangle width="60" height="40" as="alternateBounds" />
          </mxGeometry>
        </mxCell>
        <mxCell id="0XxwVPzC8koL60T8kLyI-38" value="&lt;div&gt;email&lt;/div&gt;" style="shape=partialRectangle;html=1;whiteSpace=wrap;connectable=0;strokeColor=inherit;overflow=hidden;fillColor=none;top=0;left=0;bottom=0;right=0;pointerEvents=1;" vertex="1" parent="0XxwVPzC8koL60T8kLyI-35">
          <mxGeometry x="130" width="40" height="40" as="geometry">
            <mxRectangle width="40" height="40" as="alternateBounds" />
          </mxGeometry>
        </mxCell>
        <mxCell id="0XxwVPzC8koL60T8kLyI-54" value="cc_Pessoa_Aluno" style="shape=partialRectangle;html=1;whiteSpace=wrap;connectable=0;strokeColor=inherit;overflow=hidden;fillColor=none;top=0;left=0;bottom=0;right=0;pointerEvents=1;" vertex="1" parent="0XxwVPzC8koL60T8kLyI-35">
          <mxGeometry x="170" width="110" height="40" as="geometry">
            <mxRectangle width="110" height="40" as="alternateBounds" />
          </mxGeometry>
        </mxCell>
        <mxCell id="0XxwVPzC8koL60T8kLyI-39" style="edgeStyle=orthogonalEdgeStyle;rounded=0;orthogonalLoop=1;jettySize=auto;html=1;exitX=0.25;exitY=1;exitDx=0;exitDy=0;entryX=0.5;entryY=1;entryDx=0;entryDy=0;" edge="1" parent="1" source="0XxwVPzC8koL60T8kLyI-34" target="J5dlkVCJDZYCb8qdDboG-21">
          <mxGeometry relative="1" as="geometry">
            <Array as="points">
              <mxPoint x="125" y="790" />
              <mxPoint x="555" y="790" />
            </Array>
          </mxGeometry>
        </mxCell>
        <mxCell id="0XxwVPzC8koL60T8kLyI-45" value="" style="shape=table;startSize=0;container=1;collapsible=0;childLayout=tableLayout;" vertex="1" parent="1">
          <mxGeometry x="240" y="440" width="240" height="40" as="geometry" />
        </mxCell>
        <mxCell id="0XxwVPzC8koL60T8kLyI-46" value="" style="shape=tableRow;horizontal=0;startSize=0;swimlaneHead=0;swimlaneBody=0;strokeColor=inherit;top=0;left=0;bottom=0;right=0;collapsible=0;dropTarget=0;fillColor=none;points=[[0,0.5],[1,0.5]];portConstraint=eastwest;" vertex="1" parent="0XxwVPzC8koL60T8kLyI-45">
          <mxGeometry width="240" height="40" as="geometry" />
        </mxCell>
        <mxCell id="0XxwVPzC8koL60T8kLyI-47" value="Relation" style="shape=partialRectangle;html=1;whiteSpace=wrap;connectable=0;strokeColor=inherit;overflow=hidden;fillColor=none;top=0;left=0;bottom=0;right=0;pointerEvents=1;" vertex="1" parent="0XxwVPzC8koL60T8kLyI-46">
          <mxGeometry width="50" height="40" as="geometry">
            <mxRectangle width="50" height="40" as="alternateBounds" />
          </mxGeometry>
        </mxCell>
        <mxCell id="0XxwVPzC8koL60T8kLyI-48" value="&lt;u&gt;cc_Pessoa_EE&lt;/u&gt;" style="shape=partialRectangle;html=1;whiteSpace=wrap;connectable=0;strokeColor=inherit;overflow=hidden;fillColor=none;top=0;left=0;bottom=0;right=0;pointerEvents=1;" vertex="1" parent="0XxwVPzC8koL60T8kLyI-46">
          <mxGeometry x="50" width="90" height="40" as="geometry">
            <mxRectangle width="90" height="40" as="alternateBounds" />
          </mxGeometry>
        </mxCell>
        <mxCell id="0XxwVPzC8koL60T8kLyI-49" value="&lt;u&gt;cc_Pessoa_Aluno&lt;/u&gt;" style="shape=partialRectangle;html=1;whiteSpace=wrap;connectable=0;strokeColor=inherit;overflow=hidden;fillColor=none;top=0;left=0;bottom=0;right=0;pointerEvents=1;" vertex="1" parent="0XxwVPzC8koL60T8kLyI-46">
          <mxGeometry x="140" width="100" height="40" as="geometry">
            <mxRectangle width="100" height="40" as="alternateBounds" />
          </mxGeometry>
        </mxCell>
        <mxCell id="0XxwVPzC8koL60T8kLyI-51" style="edgeStyle=orthogonalEdgeStyle;rounded=0;orthogonalLoop=1;jettySize=auto;html=1;exitX=0.75;exitY=1;exitDx=0;exitDy=0;entryX=0.071;entryY=1.025;entryDx=0;entryDy=0;entryPerimeter=0;" edge="1" parent="1" source="0XxwVPzC8koL60T8kLyI-45" target="0XxwVPzC8koL60T8kLyI-1">
          <mxGeometry relative="1" as="geometry">
            <Array as="points">
              <mxPoint x="420" y="510" />
              <mxPoint x="500" y="510" />
              <mxPoint x="500" y="630" />
              <mxPoint x="530" y="630" />
            </Array>
          </mxGeometry>
        </mxCell>
        <mxCell id="0XxwVPzC8koL60T8kLyI-52" style="edgeStyle=orthogonalEdgeStyle;rounded=0;orthogonalLoop=1;jettySize=auto;html=1;exitX=0.4;exitY=0.975;exitDx=0;exitDy=0;entryX=0.117;entryY=0.975;entryDx=0;entryDy=0;entryPerimeter=0;exitPerimeter=0;" edge="1" parent="1" source="0XxwVPzC8koL60T8kLyI-46" target="0XxwVPzC8koL60T8kLyI-14">
          <mxGeometry relative="1" as="geometry">
            <Array as="points">
              <mxPoint x="336" y="510" />
              <mxPoint x="270" y="510" />
              <mxPoint x="270" y="620" />
              <mxPoint x="301" y="620" />
            </Array>
          </mxGeometry>
        </mxCell>
        <mxCell id="0XxwVPzC8koL60T8kLyI-59" value="" style="shape=table;startSize=0;container=1;collapsible=0;childLayout=tableLayout;" vertex="1" parent="1">
          <mxGeometry x="80" y="560" width="120" height="40" as="geometry" />
        </mxCell>
        <mxCell id="0XxwVPzC8koL60T8kLyI-60" value="" style="shape=tableRow;horizontal=0;startSize=0;swimlaneHead=0;swimlaneBody=0;strokeColor=inherit;top=0;left=0;bottom=0;right=0;collapsible=0;dropTarget=0;fillColor=none;points=[[0,0.5],[1,0.5]];portConstraint=eastwest;" vertex="1" parent="0XxwVPzC8koL60T8kLyI-59">
          <mxGeometry width="120" height="40" as="geometry" />
        </mxCell>
        <mxCell id="0XxwVPzC8koL60T8kLyI-61" value="&lt;u&gt;id&lt;/u&gt;" style="shape=partialRectangle;html=1;whiteSpace=wrap;connectable=0;strokeColor=inherit;overflow=hidden;fillColor=none;top=0;left=0;bottom=0;right=0;pointerEvents=1;" vertex="1" parent="0XxwVPzC8koL60T8kLyI-60">
          <mxGeometry width="60" height="40" as="geometry">
            <mxRectangle width="60" height="40" as="alternateBounds" />
          </mxGeometry>
        </mxCell>
        <mxCell id="0XxwVPzC8koL60T8kLyI-62" value="meses" style="shape=partialRectangle;html=1;whiteSpace=wrap;connectable=0;strokeColor=inherit;overflow=hidden;fillColor=none;top=0;left=0;bottom=0;right=0;pointerEvents=1;" vertex="1" parent="0XxwVPzC8koL60T8kLyI-60">
          <mxGeometry x="60" width="60" height="40" as="geometry">
            <mxRectangle width="60" height="40" as="alternateBounds" />
          </mxGeometry>
        </mxCell>
        <mxCell id="0XxwVPzC8koL60T8kLyI-63" value="Recurrencia" style="rounded=0;whiteSpace=wrap;html=1;" vertex="1" parent="1">
          <mxGeometry x="80" y="530" width="80" height="30" as="geometry" />
        </mxCell>
        <mxCell id="0XxwVPzC8koL60T8kLyI-64" value="" style="shape=table;startSize=0;container=1;collapsible=0;childLayout=tableLayout;" vertex="1" parent="1">
          <mxGeometry x="80" y="440" width="117.5" height="40" as="geometry" />
        </mxCell>
        <mxCell id="0XxwVPzC8koL60T8kLyI-65" value="" style="shape=tableRow;horizontal=0;startSize=0;swimlaneHead=0;swimlaneBody=0;strokeColor=inherit;top=0;left=0;bottom=0;right=0;collapsible=0;dropTarget=0;fillColor=none;points=[[0,0.5],[1,0.5]];portConstraint=eastwest;" vertex="1" parent="0XxwVPzC8koL60T8kLyI-64">
          <mxGeometry width="117.5" height="40" as="geometry" />
        </mxCell>
        <mxCell id="0XxwVPzC8koL60T8kLyI-66" value="&lt;u&gt;id&lt;/u&gt;" style="shape=partialRectangle;html=1;whiteSpace=wrap;connectable=0;strokeColor=inherit;overflow=hidden;fillColor=none;top=0;left=0;bottom=0;right=0;pointerEvents=1;" vertex="1" parent="0XxwVPzC8koL60T8kLyI-65">
          <mxGeometry width="37" height="40" as="geometry">
            <mxRectangle width="37" height="40" as="alternateBounds" />
          </mxGeometry>
        </mxCell>
        <mxCell id="0XxwVPzC8koL60T8kLyI-67" value="valorDesconto" style="shape=partialRectangle;html=1;whiteSpace=wrap;connectable=0;strokeColor=inherit;overflow=hidden;fillColor=none;top=0;left=0;bottom=0;right=0;pointerEvents=1;" vertex="1" parent="0XxwVPzC8koL60T8kLyI-65">
          <mxGeometry x="37" width="81" height="40" as="geometry">
            <mxRectangle width="81" height="40" as="alternateBounds" />
          </mxGeometry>
        </mxCell>
        <mxCell id="0XxwVPzC8koL60T8kLyI-69" value="Desconto" style="rounded=0;whiteSpace=wrap;html=1;" vertex="1" parent="1">
          <mxGeometry x="80" y="410" width="97.5" height="30" as="geometry" />
        </mxCell>
        <mxCell id="0XxwVPzC8koL60T8kLyI-70" value="Pagamento" style="rounded=0;whiteSpace=wrap;html=1;" vertex="1" parent="1">
          <mxGeometry x="80" y="290" width="110" height="30" as="geometry" />
        </mxCell>
        <mxCell id="0XxwVPzC8koL60T8kLyI-71" value="" style="shape=table;startSize=0;container=1;collapsible=0;childLayout=tableLayout;" vertex="1" parent="1">
          <mxGeometry x="80" y="320" width="310" height="40" as="geometry" />
        </mxCell>
        <mxCell id="0XxwVPzC8koL60T8kLyI-72" value="" style="shape=tableRow;horizontal=0;startSize=0;swimlaneHead=0;swimlaneBody=0;strokeColor=inherit;top=0;left=0;bottom=0;right=0;collapsible=0;dropTarget=0;fillColor=none;points=[[0,0.5],[1,0.5]];portConstraint=eastwest;" vertex="1" parent="0XxwVPzC8koL60T8kLyI-71">
          <mxGeometry width="310" height="40" as="geometry" />
        </mxCell>
        <mxCell id="0XxwVPzC8koL60T8kLyI-73" value="&lt;u&gt;id&lt;/u&gt;" style="shape=partialRectangle;html=1;whiteSpace=wrap;connectable=0;strokeColor=inherit;overflow=hidden;fillColor=none;top=0;left=0;bottom=0;right=0;pointerEvents=1;" vertex="1" parent="0XxwVPzC8koL60T8kLyI-72">
          <mxGeometry width="50" height="40" as="geometry">
            <mxRectangle width="50" height="40" as="alternateBounds" />
          </mxGeometry>
        </mxCell>
        <mxCell id="0XxwVPzC8koL60T8kLyI-74" value="custo" style="shape=partialRectangle;html=1;whiteSpace=wrap;connectable=0;strokeColor=inherit;overflow=hidden;fillColor=none;top=0;left=0;bottom=0;right=0;pointerEvents=1;" vertex="1" parent="0XxwVPzC8koL60T8kLyI-72">
          <mxGeometry x="50" width="60" height="40" as="geometry">
            <mxRectangle width="60" height="40" as="alternateBounds" />
          </mxGeometry>
        </mxCell>
        <mxCell id="0XxwVPzC8koL60T8kLyI-75" value="desconto_Id" style="shape=partialRectangle;html=1;whiteSpace=wrap;connectable=0;strokeColor=inherit;overflow=hidden;fillColor=none;top=0;left=0;bottom=0;right=0;pointerEvents=1;" vertex="1" parent="0XxwVPzC8koL60T8kLyI-72">
          <mxGeometry x="110" width="90" height="40" as="geometry">
            <mxRectangle width="90" height="40" as="alternateBounds" />
          </mxGeometry>
        </mxCell>
        <mxCell id="0XxwVPzC8koL60T8kLyI-76" value="recurrencia_Id" style="shape=partialRectangle;html=1;whiteSpace=wrap;connectable=0;strokeColor=inherit;overflow=hidden;fillColor=none;top=0;left=0;bottom=0;right=0;pointerEvents=1;" vertex="1" parent="0XxwVPzC8koL60T8kLyI-72">
          <mxGeometry x="200" width="110" height="40" as="geometry">
            <mxRectangle width="110" height="40" as="alternateBounds" />
          </mxGeometry>
        </mxCell>
        <mxCell id="0XxwVPzC8koL60T8kLyI-77" style="edgeStyle=orthogonalEdgeStyle;rounded=0;orthogonalLoop=1;jettySize=auto;html=1;exitX=0.5;exitY=0;exitDx=0;exitDy=0;entryX=0.084;entryY=1.025;entryDx=0;entryDy=0;entryPerimeter=0;" edge="1" parent="1" source="J5dlkVCJDZYCb8qdDboG-38" target="0XxwVPzC8koL60T8kLyI-71">
          <mxGeometry relative="1" as="geometry">
            <Array as="points">
              <mxPoint x="718" y="280" />
              <mxPoint x="490" y="280" />
              <mxPoint x="490" y="390" />
              <mxPoint x="106" y="390" />
            </Array>
          </mxGeometry>
        </mxCell>
        <mxCell id="0XxwVPzC8koL60T8kLyI-78" style="edgeStyle=orthogonalEdgeStyle;rounded=0;orthogonalLoop=1;jettySize=auto;html=1;exitX=0.5;exitY=1;exitDx=0;exitDy=0;entryX=0.162;entryY=1.025;entryDx=0;entryDy=0;entryPerimeter=0;" edge="1" parent="1" source="0XxwVPzC8koL60T8kLyI-71" target="0XxwVPzC8koL60T8kLyI-65">
          <mxGeometry relative="1" as="geometry">
            <Array as="points">
              <mxPoint x="235" y="400" />
              <mxPoint x="210" y="400" />
              <mxPoint x="210" y="500" />
              <mxPoint x="99" y="500" />
            </Array>
          </mxGeometry>
        </mxCell>
        <mxCell id="0XxwVPzC8koL60T8kLyI-79" style="edgeStyle=orthogonalEdgeStyle;rounded=0;orthogonalLoop=1;jettySize=auto;html=1;exitX=0.81;exitY=1;exitDx=0;exitDy=0;entryX=0.25;entryY=1;entryDx=0;entryDy=0;exitPerimeter=0;" edge="1" parent="1" source="0XxwVPzC8koL60T8kLyI-72" target="0XxwVPzC8koL60T8kLyI-59">
          <mxGeometry relative="1" as="geometry">
            <Array as="points">
              <mxPoint x="330" y="360" />
              <mxPoint x="330" y="410" />
              <mxPoint x="220" y="410" />
              <mxPoint x="220" y="620" />
              <mxPoint x="110" y="620" />
            </Array>
          </mxGeometry>
        </mxCell>
      </root>
    </mxGraphModel>
  </diagram>
</mxfile>
